<svg xmlns="http://www.w3.org/2000/svg" version="1.0" width="74.10988974712313" height="82.90109886079142" preserveAspectRatio="xMidYMid meet" style=""><rect id="backgroundrect" width="100%" height="100%" x="0" y="0" fill="none" stroke="none" class="" style=""/>
<metadata>
Created by potrace 1.10, written by Peter Selinger 2001-2011
</metadata>

<g style=""><title>Layer 1</title><g transform="translate(0,84) scale(0.10000000149011612,-0.10000000149011612) " fill="#ffffff" stroke="#000000" id="svg_1" class="" stroke-opacity="1">
<path  class="logoPath"  d="M305 732 c-56 -31 -117 -67 -138 -79 l-37 -22 0 -213 1 -213 135 -75 c75 -41 144 -75 154 -75 10 0 79 34 154 75 l135 75 1 211 c0 158 -3 214 -12 222 -27 21 -269 152 -280 151 -7 0 -58 -26 -113 -57z m246 -24 c71 -39 129 -74 129 -77 0 -3 -59 -39 -130 -79 l-130 -73 -130 73 c-72 40 -130 76 -130 79 0 4 248 147 258 149 2 0 62 -32 133 -72z m-201 -203 l55 -31 3 -54 2 -55 -76 -40 c-96 -51 -94 -50 -94 -28 0 12 23 30 70 56 62 33 70 41 70 67 0 26 -8 33 -82 74 -131 71 -118 82 -118 -101 l0 -159 122 -69 c92 -51 125 -66 137 -58 9 5 62 35 119 67 l102 57 0 165 0 165 -22 -12 c-13 -7 -58 -32 -101 -57 -73 -41 -78 -46 -75 -75 3 -26 12 -35 66 -65 59 -32 82 -55 69 -68 -3 -3 -41 14 -86 38 l-81 43 2 55 3 54 55 31 c30 17 90 50 133 74 l77 42 0 -203 0 -203 -140 -78 -140 -78 -140 78 -140 78 0 203 0 203 78 -42 c42 -24 102 -57 132 -74z m-125 -103 c-1 -63 -1 -122 2 -131 2 -9 47 -40 100 -68 l96 -53 93 53 94 52 0 132 c0 122 2 133 20 143 20 10 20 8 20 -139 l0 -150 -72 -42 c-40 -23 -91 -52 -113 -64 l-41 -23 -117 65 -117 65 0 149 c0 144 1 149 19 137 17 -10 19 -23 16 -126z m143 20 c2 -16 -10 -28 -58 -56 -34 -20 -63 -36 -66 -36 -2 0 -4 41 -4 91 l0 91 63 -34 c41 -23 63 -42 65 -56z m232 -3 c0 -50 -4 -89 -8 -87 -5 2 -34 17 -66 33 -76 40 -75 66 4 111 30 18 58 33 63 33 4 1 7 -40 7 -90z m-95 -106 c96 -54 97 -51 -12 -109 l-72 -39 -73 39 c-110 58 -109 55 -15 108 45 26 83 47 84 47 2 1 41 -20 88 -46z" id="svg_2" stroke="#000000" stroke-opacity="1"/>
<path  class="logoPath" d="M323 688 c-51 -28 -93 -54 -93 -57 0 -3 43 -30 95 -59 l95 -54 95 54 c52 29 95 56 95 59 0 5 -183 109 -191 109 -2 0 -46 -24 -96 -52z m185 -8 c45 -25 82 -47 82 -50 0 -3 -39 -26 -85 -51 l-85 -47 -85 47 c-46 25 -85 48 -85 51 0 6 163 98 170 96 3 0 42 -21 88 -46z" id="svg_3" stroke="#000000" stroke-opacity="1"/>
<path  class="logoPath" d="M352 653 c-35 -19 -61 -37 -58 -40 2 -3 32 10 65 29 l61 33 61 -33 c33 -19 63 -32 65 -29 4 4 -122 78 -129 76 -1 0 -30 -16 -65 -36z" id="svg_4" stroke="#000000" stroke-opacity="1"/>
<path  class="logoPath" d="M352 283 c-35 -19 -61 -37 -59 -40 3 -2 33 11 67 30 l62 35 60 -35 c33 -19 62 -33 65 -30 4 5 -118 78 -128 77 -2 -1 -32 -17 -67 -37z" id="svg_5" stroke="#000000" stroke-opacity="1"/>
</g></g></svg>

