<?xml version="1.0" standalone="no"?>
<!DOCTYPE svg PUBLIC "-//W3C//DTD SVG 20010904//EN"
 "http://www.w3.org/TR/2001/REC-SVG-20010904/DTD/svg10.dtd">
<svg version="1.0" xmlns="http://www.w3.org/2000/svg"
 width="50.000000pt" height="50.000000pt" viewBox="0 0 50.000000 50.000000"
 preserveAspectRatio="xMidYMid meet">
<metadata>
Created by potrace 1.16, written by Peter Selinger 2001-2019
</metadata>
<g transform="translate(0.000000,50.000000) scale(0.100000,-0.100000)"
fill="#ffffff" stroke="none">
<path d="M0 250 l0 -180 250 0 250 0 0 180 0 180 -250 0 -250 0 0 -180z m480
152 c0 -12 -215 -182 -230 -182 -15 0 -230 170 -230 182 0 4 104 8 230 8 127
0 230 -4 230 -8z m-315 -166 c39 -31 77 -56 85 -56 8 0 47 25 85 56 39 31 87
69 108 86 l37 30 0 -131 0 -131 -230 0 -230 0 0 131 0 131 38 -30 c20 -17 69
-55 107 -86z"/>
</g>
</svg>
